<svg width="1920" height="1200" viewBox="0 0 1920 1200" fill="none" xmlns="http://www.w3.org/2000/svg">
<g opacity="0.5">
<g style="mix-blend-mode:soft-light" opacity="0.7">
<path d="M-268.904 14.561H-327.439V73.0969M-268.904 14.561V73.0969M-268.904 14.561H-210.368M-268.904 73.0969H-327.439M-268.904 73.0969V131.633M-268.904 73.0969H-210.368M-327.439 73.0969V131.633M-268.904 131.633H-327.439M-268.904 131.633V190.169M-268.904 131.633H-210.368M-327.439 131.633V190.169M-268.904 190.169H-327.439M-268.904 190.169V248.705M-268.904 190.169H-210.368M-327.439 190.169V248.705M-268.904 248.705H-327.439M-268.904 248.705V307.241M-268.904 248.705H-210.368M-327.439 248.705V307.241M-268.904 307.241H-327.439M-268.904 307.241V365.777M-268.904 307.241H-210.368M-327.439 307.241V365.777M-268.904 365.777H-327.439M-268.904 365.777V424.313M-268.904 365.777H-210.368M-327.439 365.777V424.313M-268.904 424.313H-327.439M-268.904 424.313V482.849M-268.904 424.313H-210.368M-327.439 424.313V482.849M-268.904 482.849H-327.439M-268.904 482.849V541.384M-268.904 482.849H-210.368M-327.439 482.849V541.384M-268.904 541.384H-327.439M-268.904 541.384V599.92M-268.904 541.384H-210.368M-327.439 541.384V599.92M-268.904 599.92H-327.439M-268.904 599.92V658.456M-268.904 599.92H-210.368M-327.439 599.92V658.456M-268.904 658.456H-327.439M-268.904 658.456V716.992M-268.904 658.456H-210.368M-327.439 658.456V716.992M-268.904 716.992H-327.439M-268.904 716.992V775.528M-268.904 716.992H-210.368M-327.439 716.992V775.528M-268.904 775.528H-327.439M-268.904 775.528V834.064M-268.904 775.528H-210.368M-327.439 775.528V834.064M-268.904 834.064H-327.439M-268.904 834.064V892.6M-268.904 834.064H-210.368M-327.439 834.064V892.6M-268.904 892.6H-327.439M-268.904 892.6V951.136M-268.904 892.6H-210.368M-327.439 892.6V951.136M-268.904 951.136H-327.439M-268.904 951.136V1009.67M-268.904 951.136H-210.368M-327.439 951.136V1009.67M-268.904 1009.67H-327.439M-268.904 1009.67V1068.21M-268.904 1009.67H-210.368M-327.439 1009.67V1068.21M-268.904 1068.21H-327.439M-268.904 1068.21V1126.74M-268.904 1068.21H-210.368M-327.439 1068.21V1126.74M-268.904 1126.74H-327.439M-268.904 1126.74V1185.28M-268.904 1126.74H-210.368M-327.439 1126.74V1185.28H-268.904M-268.904 1185.28H-210.368M-210.368 14.561V73.0969M-210.368 14.561H-151.832M-210.368 73.0969V131.633M-210.368 73.0969H-151.832M-210.368 131.633V190.169M-210.368 131.633H-151.832M-210.368 190.169V248.705M-210.368 190.169H-151.832M-210.368 248.705V307.241M-210.368 248.705H-151.832M-210.368 307.241V365.777M-210.368 307.241H-151.832M-210.368 365.777V424.313M-210.368 365.777H-151.832M-210.368 424.313V482.849M-210.368 424.313H-151.832M-210.368 482.849V541.384M-210.368 482.849H-151.832M-210.368 541.384V599.92M-210.368 541.384H-151.832M-210.368 599.92V658.456M-210.368 599.92H-151.832M-210.368 658.456V716.992M-210.368 658.456H-151.832M-210.368 716.992V775.528M-210.368 716.992H-151.832M-210.368 775.528V834.064M-210.368 775.528H-151.832M-210.368 834.064V892.6M-210.368 834.064H-151.832M-210.368 892.6V951.136M-210.368 892.6H-151.832M-210.368 951.136V1009.67M-210.368 951.136H-151.832M-210.368 1009.67V1068.21M-210.368 1009.67H-151.832M-210.368 1068.21V1126.74M-210.368 1068.21H-151.832M-210.368 1126.74V1185.28M-210.368 1126.74H-151.832M-210.368 1185.28H-151.832M-151.832 14.561V73.0969M-151.832 14.561H-93.2957M-151.832 73.0969V131.633M-151.832 73.0969H-93.2957M-151.832 131.633V190.169M-151.832 131.633H-93.2957M-151.832 190.169V248.705M-151.832 190.169H-93.2957M-151.832 248.705V307.241M-151.832 248.705H-93.2957M-151.832 307.241V365.777M-151.832 307.241H-93.2957M-151.832 365.777V424.313M-151.832 365.777H-93.2957M-151.832 424.313V482.849M-151.832 424.313H-93.2957M-151.832 482.849V541.384M-151.832 482.849H-93.2957M-151.832 541.384V599.92M-151.832 541.384H-93.2957M-151.832 599.92V658.456M-151.832 599.92H-93.2957M-151.832 658.456V716.992M-151.832 658.456H-93.2957M-151.832 716.992V775.528M-151.832 716.992H-93.2957M-151.832 775.528V834.064M-151.832 775.528H-93.2957M-151.832 834.064V892.6M-151.832 834.064H-93.2957M-151.832 892.6V951.136M-151.832 892.6H-93.2957M-151.832 951.136V1009.67M-151.832 951.136H-93.2957M-151.832 1009.67V1068.21M-151.832 1009.67H-93.2957M-151.832 1068.21V1126.74M-151.832 1068.21H-93.2957M-151.832 1126.74V1185.28M-151.832 1126.74H-93.2957M-151.832 1185.28H-93.2957M-93.2957 14.561V73.0969M-93.2957 14.561H-34.7597M-93.2957 73.0969V131.633M-93.2957 73.0969H-34.7597M-93.2957 131.633V190.169M-93.2957 131.633H-34.7597M-93.2957 190.169V248.705M-93.2957 190.169H-34.7597M-93.2957 248.705V307.241M-93.2957 248.705H-34.7597M-93.2957 307.241V365.777M-93.2957 307.241H-34.7597M-93.2957 365.777V424.313M-93.2957 365.777H-34.7597M-93.2957 424.313V482.849M-93.2957 424.313H-34.7597M-93.2957 482.849V541.384M-93.2957 482.849H-34.7597M-93.2957 541.384V599.92M-93.2957 541.384H-34.7597M-93.2957 599.92V658.456M-93.2957 599.92H-34.7597M-93.2957 658.456V716.992M-93.2957 658.456H-34.7597M-93.2957 716.992V775.528M-93.2957 716.992H-34.7597M-93.2957 775.528V834.064M-93.2957 775.528H-34.7597M-93.2957 834.064V892.6M-93.2957 834.064H-34.7597M-93.2957 892.6V951.136M-93.2957 892.6H-34.7597M-93.2957 951.136V1009.67M-93.2957 951.136H-34.7597M-93.2957 1009.67V1068.21M-93.2957 1009.67H-34.7597M-93.2957 1068.21V1126.74M-93.2957 1068.21H-34.7597M-93.2957 1126.74V1185.28M-93.2957 1126.74H-34.7597M-93.2957 1185.28H-34.7597M-34.7597 14.561V73.0969M-34.7597 14.561H23.7762M-34.7597 73.0969V131.633M-34.7597 73.0969H23.7762M-34.7597 131.633V190.169M-34.7597 131.633H23.7762M-34.7597 190.169V248.705M-34.7597 190.169H23.7762M-34.7597 248.705V307.241M-34.7597 248.705H23.7762M-34.7597 307.241V365.777M-34.7597 307.241H23.7762M-34.7597 365.777V424.313M-34.7597 365.777H23.7762M-34.7597 424.313V482.849M-34.7597 424.313H23.7762M-34.7597 482.849V541.384M-34.7597 482.849H23.7762M-34.7597 541.384V599.92M-34.7597 541.384H23.7762M-34.7597 599.92V658.456M-34.7597 599.92H23.7762M-34.7597 658.456V716.992M-34.7597 658.456H23.7762M-34.7597 716.992V775.528M-34.7597 716.992H23.7762M-34.7597 775.528V834.064M-34.7597 775.528H23.7762M-34.7597 834.064V892.6M-34.7597 834.064H23.7762M-34.7597 892.6V951.136M-34.7597 892.6H23.7762M-34.7597 951.136V1009.67M-34.7597 951.136H23.7762M-34.7597 1009.67V1068.21M-34.7597 1009.67H23.7762M-34.7597 1068.21V1126.74M-34.7597 1068.21H23.7762M-34.7597 1126.74V1185.28M-34.7597 1126.74H23.7762M-34.7597 1185.28H23.7762M23.7762 14.561V73.0969M23.7762 14.561H82.3122M23.7762 73.0969V131.633M23.7762 73.0969H82.3122M23.7762 131.633V190.169M23.7762 131.633H82.3122M23.7762 190.169V248.705M23.7762 190.169H82.3122M23.7762 248.705V307.241M23.7762 248.705H82.3122M23.7762 307.241V365.777M23.7762 307.241H82.3122M23.7762 365.777V424.313M23.7762 365.777H82.3122M23.7762 424.313V482.849M23.7762 424.313H82.3122M23.7762 482.849V541.384M23.7762 482.849H82.3122M23.7762 541.384V599.92M23.7762 541.384H82.3122M23.7762 599.92V658.456M23.7762 599.92H82.3122M23.7762 658.456V716.992M23.7762 658.456H82.3122M23.7762 716.992V775.528M23.7762 716.992H82.3122M23.7762 775.528V834.064M23.7762 775.528H82.3122M23.7762 834.064V892.6M23.7762 834.064H82.3122M23.7762 892.6V951.136M23.7762 892.6H82.3122M23.7762 951.136V1009.67M23.7762 951.136H82.3122M23.7762 1009.67V1068.21M23.7762 1009.67H82.3122M23.7762 1068.21V1126.74M23.7762 1068.21H82.3122M23.7762 1126.74V1185.28M23.7762 1126.74H82.3122M23.7762 1185.28H82.3122M82.3122 14.561V73.0969M82.3122 14.561H140.848M82.3122 73.0969V131.633M82.3122 73.0969H140.848M82.3122 131.633V190.169M82.3122 131.633H140.848M82.3122 190.169V248.705M82.3122 190.169H140.848M82.3122 248.705V307.241M82.3122 248.705H140.848M82.3122 307.241V365.777M82.3122 307.241H140.848M82.3122 365.777V424.313M82.3122 365.777H140.848M82.3122 424.313V482.849M82.3122 424.313H140.848M82.3122 482.849V541.384M82.3122 482.849H140.848M82.3122 541.384V599.92M82.3122 541.384H140.848M82.3122 599.92V658.456M82.3122 599.92H140.848M82.3122 658.456V716.992M82.3122 658.456H140.848M82.3122 716.992V775.528M82.3122 716.992H140.848M82.3122 775.528V834.064M82.3122 775.528H140.848M82.3122 834.064V892.6M82.3122 834.064H140.848M82.3122 892.6V951.136M82.3122 892.6H140.848M82.3122 951.136V1009.67M82.3122 951.136H140.848M82.3122 1009.67V1068.21M82.3122 1009.67H140.848M82.3122 1068.21V1126.74M82.3122 1068.21H140.848M82.3122 1126.74V1185.28M82.3122 1126.74H140.848M82.3122 1185.28H140.848M140.848 14.561V73.0969M140.848 14.561H199.384M140.848 73.0969V131.633M140.848 73.0969H199.384M140.848 131.633V190.169M140.848 131.633H199.384M140.848 190.169V248.705M140.848 190.169H199.384M140.848 248.705V307.241M140.848 248.705H199.384M140.848 307.241V365.777M140.848 307.241H199.384M140.848 365.777V424.313M140.848 365.777H199.384M140.848 424.313V482.849M140.848 424.313H199.384M140.848 482.849V541.384M140.848 482.849H199.384M140.848 541.384V599.92M140.848 541.384H199.384M140.848 599.92V658.456M140.848 599.92H199.384M140.848 658.456V716.992M140.848 658.456H199.384M140.848 716.992V775.528M140.848 716.992H199.384M140.848 775.528V834.064M140.848 775.528H199.384M140.848 834.064V892.6M140.848 834.064H199.384M140.848 892.6V951.136M140.848 892.6H199.384M140.848 951.136V1009.67M140.848 951.136H199.384M140.848 1009.67V1068.21M140.848 1009.67H199.384M140.848 1068.21V1126.74M140.848 1068.21H199.384M140.848 1126.74V1185.28M140.848 1126.74H199.384M140.848 1185.28H199.384M199.384 14.561V73.0969M199.384 14.561H257.92M199.384 73.0969V131.633M199.384 73.0969H257.92M199.384 131.633V190.169M199.384 131.633H257.92M199.384 190.169V248.705M199.384 190.169H257.92M199.384 248.705V307.241M199.384 248.705H257.92M199.384 307.241V365.777M199.384 307.241H257.92M199.384 365.777V424.313M199.384 365.777H257.92M199.384 424.313V482.849M199.384 424.313H257.92M199.384 482.849V541.384M199.384 482.849H257.92M199.384 541.384V599.92M199.384 541.384H257.92M199.384 599.92V658.456M199.384 599.92H257.92M199.384 658.456V716.992M199.384 658.456H257.92M199.384 716.992V775.528M199.384 716.992H257.92M199.384 775.528V834.064M199.384 775.528H257.92M199.384 834.064V892.6M199.384 834.064H257.92M199.384 892.6V951.136M199.384 892.6H257.92M199.384 951.136V1009.67M199.384 951.136H257.92M199.384 1009.67V1068.21M199.384 1009.67H257.92M199.384 1068.21V1126.74M199.384 1068.21H257.92M199.384 1126.74V1185.28M199.384 1126.74H257.92M199.384 1185.28H257.92M257.92 14.561V73.0969M257.92 14.561H316.456M257.92 73.0969V131.633M257.92 73.0969H316.456M257.92 131.633V190.169M257.92 131.633H316.456M257.92 190.169V248.705M257.92 190.169H316.456M257.92 248.705V307.241M257.92 248.705H316.456M257.92 307.241V365.777M257.92 307.241H316.456M257.92 365.777V424.313M257.92 365.777H316.456M257.92 424.313V482.849M257.92 424.313H316.456M257.92 482.849V541.384M257.92 482.849H316.456M257.92 541.384V599.92M257.92 541.384H316.456M257.92 599.92V658.456M257.92 599.92H316.456M257.92 658.456V716.992M257.92 658.456H316.456M257.92 716.992V775.528M257.92 716.992H316.456M257.92 775.528V834.064M257.92 775.528H316.456M257.92 834.064V892.6M257.92 834.064H316.456M257.92 892.6V951.136M257.92 892.6H316.456M257.92 951.136V1009.67M257.92 951.136H316.456M257.92 1009.67V1068.21M257.92 1009.67H316.456M257.92 1068.21V1126.74M257.92 1068.21H316.456M257.92 1126.74V1185.28M257.92 1126.74H316.456M257.92 1185.28H316.456M316.456 14.561V73.0969M316.456 14.561H374.992M316.456 73.0969V131.633M316.456 73.0969H374.992M316.456 131.633V190.169M316.456 131.633H374.992M316.456 190.169V248.705M316.456 190.169H374.992M316.456 248.705V307.241M316.456 248.705H374.992M316.456 307.241V365.777M316.456 307.241H374.992M316.456 365.777V424.313M316.456 365.777H374.992M316.456 424.313V482.849M316.456 424.313H374.992M316.456 482.849V541.384M316.456 482.849H374.992M316.456 541.384V599.92M316.456 541.384H374.992M316.456 599.92V658.456M316.456 599.92H374.992M316.456 658.456V716.992M316.456 658.456H374.992M316.456 716.992V775.528M316.456 716.992H374.992M316.456 775.528V834.064M316.456 775.528H374.992M316.456 834.064V892.6M316.456 834.064H374.992M316.456 892.6V951.136M316.456 892.6H374.992M316.456 951.136V1009.67M316.456 951.136H374.992M316.456 1009.67V1068.21M316.456 1009.67H374.992M316.456 1068.21V1126.74M316.456 1068.21H374.992M316.456 1126.74V1185.28M316.456 1126.74H374.992M316.456 1185.28H374.992M374.992 14.561V73.0969M374.992 14.561H433.528M374.992 73.0969V131.633M374.992 73.0969H433.528M374.992 131.633V190.169M374.992 131.633H433.528M374.992 190.169V248.705M374.992 190.169H433.528M374.992 248.705V307.241M374.992 248.705H433.528M374.992 307.241V365.777M374.992 307.241H433.528M374.992 365.777V424.313M374.992 365.777H433.528M374.992 424.313V482.849M374.992 424.313H433.528M374.992 482.849V541.384M374.992 482.849H433.528M374.992 541.384V599.92M374.992 541.384H433.528M374.992 599.92V658.456M374.992 599.92H433.528M374.992 658.456V716.992M374.992 658.456H433.528M374.992 716.992V775.528M374.992 716.992H433.528M374.992 775.528V834.064M374.992 775.528H433.528M374.992 834.064V892.6M374.992 834.064H433.528M374.992 892.6V951.136M374.992 892.6H433.528M374.992 951.136V1009.67M374.992 951.136H433.528M374.992 1009.67V1068.21M374.992 1009.67H433.528M374.992 1068.21V1126.74M374.992 1068.21H433.528M374.992 1126.74V1185.28M374.992 1126.74H433.528M374.992 1185.28H433.528M433.528 14.561V73.0969M433.528 14.561H492.064M433.528 73.0969V131.633M433.528 73.0969H492.064M433.528 131.633V190.169M433.528 131.633H492.064M433.528 190.169V248.705M433.528 190.169H492.064M433.528 248.705V307.241M433.528 248.705H492.064M433.528 307.241V365.777M433.528 307.241H492.064M433.528 365.777V424.313M433.528 365.777H492.064M433.528 424.313V482.849M433.528 424.313H492.064M433.528 482.849V541.384M433.528 482.849H492.064M433.528 541.384V599.92M433.528 541.384H492.064M433.528 599.92V658.456M433.528 599.92H492.064M433.528 658.456V716.992M433.528 658.456H492.064M433.528 716.992V775.528M433.528 716.992H492.064M433.528 775.528V834.064M433.528 775.528H492.064M433.528 834.064V892.6M433.528 834.064H492.064M433.528 892.6V951.136M433.528 892.6H492.064M433.528 951.136V1009.67M433.528 951.136H492.064M433.528 1009.67V1068.21M433.528 1009.67H492.064M433.528 1068.21V1126.74M433.528 1068.21H492.064M433.528 1126.74V1185.28M433.528 1126.74H492.064M433.528 1185.28H492.064M492.064 14.561V73.0969M492.064 14.561H550.6M492.064 73.0969V131.633M492.064 73.0969H550.6M492.064 131.633V190.169M492.064 131.633H550.6M492.064 190.169V248.705M492.064 190.169H550.6M492.064 248.705V307.241M492.064 248.705H550.6M492.064 307.241V365.777M492.064 307.241H550.6M492.064 365.777V424.313M492.064 365.777H550.6M492.064 424.313V482.849M492.064 424.313H550.6M492.064 482.849V541.384M492.064 482.849H550.6M492.064 541.384V599.92M492.064 541.384H550.6M492.064 599.92V658.456M492.064 599.92H550.6M492.064 658.456V716.992M492.064 658.456H550.6M492.064 716.992V775.528M492.064 716.992H550.6M492.064 775.528V834.064M492.064 775.528H550.6M492.064 834.064V892.6M492.064 834.064H550.6M492.064 892.6V951.136M492.064 892.6H550.6M492.064 951.136V1009.67M492.064 951.136H550.6M492.064 1009.67V1068.21M492.064 1009.67H550.6M492.064 1068.21V1126.74M492.064 1068.21H550.6M492.064 1126.74V1185.28M492.064 1126.74H550.6M492.064 1185.28H550.6M550.6 14.561V73.0969M550.6 14.561H609.136M550.6 73.0969V131.633M550.6 73.0969H609.136M550.6 131.633V190.169M550.6 131.633H609.136M550.6 190.169V248.705M550.6 190.169H609.136M550.6 248.705V307.241M550.6 248.705H609.136M550.6 307.241V365.777M550.6 307.241H609.136M550.6 365.777V424.313M550.6 365.777H609.136M550.6 424.313V482.849M550.6 424.313H609.136M550.6 482.849V541.384M550.6 482.849H609.136M550.6 541.384V599.92M550.6 541.384H609.136M550.6 599.92V658.456M550.6 599.92H609.136M550.6 658.456V716.992M550.6 658.456H609.136M550.6 716.992V775.528M550.6 716.992H609.136M550.6 775.528V834.064M550.6 775.528H609.136M550.6 834.064V892.6M550.6 834.064H609.136M550.6 892.6V951.136M550.6 892.6H609.136M550.6 951.136V1009.67M550.6 951.136H609.136M550.6 1009.67V1068.21M550.6 1009.67H609.136M550.6 1068.21V1126.74M550.6 1068.21H609.136M550.6 1126.74V1185.28M550.6 1126.74H609.136M550.6 1185.28H609.136M609.136 14.561V73.0969M609.136 14.561H667.672M609.136 73.0969V131.633M609.136 73.0969H667.672M609.136 131.633V190.169M609.136 131.633H667.672M609.136 190.169V248.705M609.136 190.169H667.672M609.136 248.705V307.241M609.136 248.705H667.672M609.136 307.241V365.777M609.136 307.241H667.672M609.136 365.777V424.313M609.136 365.777H667.672M609.136 424.313V482.849M609.136 424.313H667.672M609.136 482.849V541.384M609.136 482.849H667.672M609.136 541.384V599.92M609.136 541.384H667.672M609.136 599.92V658.456M609.136 599.92H667.672M609.136 658.456V716.992M609.136 658.456H667.672M609.136 716.992V775.528M609.136 716.992H667.672M609.136 775.528V834.064M609.136 775.528H667.672M609.136 834.064V892.6M609.136 834.064H667.672M609.136 892.6V951.136M609.136 892.6H667.672M609.136 951.136V1009.67M609.136 951.136H667.672M609.136 1009.67V1068.21M609.136 1009.67H667.672M609.136 1068.21V1126.74M609.136 1068.21H667.672M609.136 1126.74V1185.28M609.136 1126.74H667.672M609.136 1185.28H667.672M667.672 14.561V73.0969M667.672 14.561H726.208M667.672 73.0969V131.633M667.672 73.0969H726.208M667.672 131.633V190.169M667.672 131.633H726.208M667.672 190.169V248.705M667.672 190.169H726.208M667.672 248.705V307.241M667.672 248.705H726.208M667.672 307.241V365.777M667.672 307.241H726.208M667.672 365.777V424.313M667.672 365.777H726.208M667.672 424.313V482.849M667.672 424.313H726.208M667.672 482.849V541.384M667.672 482.849H726.208M667.672 541.384V599.92M667.672 541.384H726.208M667.672 599.92V658.456M667.672 599.92H726.208M667.672 658.456V716.992M667.672 658.456H726.208M667.672 716.992V775.528M667.672 716.992H726.208M667.672 775.528V834.064M667.672 775.528H726.208M667.672 834.064V892.6M667.672 834.064H726.208M667.672 892.6V951.136M667.672 892.6H726.208M667.672 951.136V1009.67M667.672 951.136H726.208M667.672 1009.67V1068.21M667.672 1009.67H726.208M667.672 1068.21V1126.74M667.672 1068.21H726.208M667.672 1126.74V1185.28M667.672 1126.74H726.208M667.672 1185.28H726.208M726.208 14.561V73.0969M726.208 14.561H784.744M726.208 73.0969V131.633M726.208 73.0969H784.744M726.208 131.633V190.169M726.208 131.633H784.744M726.208 190.169V248.705M726.208 190.169H784.744M726.208 248.705V307.241M726.208 248.705H784.744M726.208 307.241V365.777M726.208 307.241H784.744M726.208 365.777V424.313M726.208 365.777H784.744M726.208 424.313V482.849M726.208 424.313H784.744M726.208 482.849V541.384M726.208 482.849H784.744M726.208 541.384V599.92M726.208 541.384H784.744M726.208 599.92V658.456M726.208 599.92H784.744M726.208 658.456V716.992M726.208 658.456H784.744M726.208 716.992V775.528M726.208 716.992H784.744M726.208 775.528V834.064M726.208 775.528H784.744M726.208 834.064V892.6M726.208 834.064H784.744M726.208 892.6V951.136M726.208 892.6H784.744M726.208 951.136V1009.67M726.208 951.136H784.744M726.208 1009.67V1068.21M726.208 1009.67H784.744M726.208 1068.21V1126.74M726.208 1068.21H784.744M726.208 1126.74V1185.28M726.208 1126.74H784.744M726.208 1185.28H784.744M784.744 14.561V73.0969M784.744 14.561H843.28M784.744 73.0969V131.633M784.744 73.0969H843.28M784.744 131.633V190.169M784.744 131.633H843.28M784.744 190.169V248.705M784.744 190.169H843.28M784.744 248.705V307.241M784.744 248.705H843.28M784.744 307.241V365.777M784.744 307.241H843.28M784.744 365.777V424.313M784.744 365.777H843.28M784.744 424.313V482.849M784.744 424.313H843.28M784.744 482.849V541.384M784.744 482.849H843.28M784.744 541.384V599.92M784.744 541.384H843.28M784.744 599.92V658.456M784.744 599.92H843.28M784.744 658.456V716.992M784.744 658.456H843.28M784.744 716.992V775.528M784.744 716.992H843.28M784.744 775.528V834.064M784.744 775.528H843.28M784.744 834.064V892.6M784.744 834.064H843.28M784.744 892.6V951.136M784.744 892.6H843.28M784.744 951.136V1009.67M784.744 951.136H843.28M784.744 1009.67V1068.21M784.744 1009.67H843.28M784.744 1068.21V1126.74M784.744 1068.21H843.28M784.744 1126.74V1185.28M784.744 1126.74H843.28M784.744 1185.28H843.28M843.28 14.561V73.0969M843.28 14.561H901.815M843.28 73.0969V131.633M843.28 73.0969H901.815M843.28 131.633V190.169M843.28 131.633H901.815M843.28 190.169V248.705M843.28 190.169H901.815M843.28 248.705V307.241M843.28 248.705H901.815M843.28 307.241V365.777M843.28 307.241H901.815M843.28 365.777V424.313M843.28 365.777H901.815M843.28 424.313V482.849M843.28 424.313H901.815M843.28 482.849V541.384M843.28 482.849H901.815M843.28 541.384V599.92M843.28 541.384H901.815M843.28 599.92V658.456M843.28 599.92H901.815M843.28 658.456V716.992M843.28 658.456H901.815M843.28 716.992V775.528M843.28 716.992H901.815M843.28 775.528V834.064M843.28 775.528H901.815M843.28 834.064V892.6M843.28 834.064H901.815M843.28 892.6V951.136M843.28 892.6H901.815M843.28 951.136V1009.67M843.28 951.136H901.815M843.28 1009.67V1068.21M843.28 1009.67H901.815M843.28 1068.21V1126.74M843.28 1068.21H901.815M843.28 1126.74V1185.28M843.28 1126.74H901.815M843.28 1185.28H901.815M901.815 14.561V73.0969M901.815 14.561H960.351M901.815 73.0969V131.633M901.815 73.0969H960.351M901.815 131.633V190.169M901.815 131.633H960.351M901.815 190.169V248.705M901.815 190.169H960.351M901.815 248.705V307.241M901.815 248.705H960.351M901.815 307.241V365.777M901.815 307.241H960.351M901.815 365.777V424.313M901.815 365.777H960.351M901.815 424.313V482.849M901.815 424.313H960.351M901.815 482.849V541.384M901.815 482.849H960.351M901.815 541.384V599.92M901.815 541.384H960.351M901.815 599.92V658.456M901.815 599.92H960.351M901.815 658.456V716.992M901.815 658.456H960.351M901.815 716.992V775.528M901.815 716.992H960.351M901.815 775.528V834.064M901.815 775.528H960.351M901.815 834.064V892.6M901.815 834.064H960.351M901.815 892.6V951.136M901.815 892.6H960.351M901.815 951.136V1009.67M901.815 951.136H960.351M901.815 1009.67V1068.21M901.815 1009.67H960.351M901.815 1068.21V1126.74M901.815 1068.21H960.351M901.815 1126.74V1185.28M901.815 1126.74H960.351M901.815 1185.28H960.351M960.351 14.561V73.0969M960.351 14.561H1018.89M960.351 73.0969V131.633M960.351 73.0969H1018.89M960.351 131.633V190.169M960.351 131.633H1018.89M960.351 190.169V248.705M960.351 190.169H1018.89M960.351 248.705V307.241M960.351 248.705H1018.89M960.351 307.241V365.777M960.351 307.241H1018.89M960.351 365.777V424.313M960.351 365.777H1018.89M960.351 424.313V482.849M960.351 424.313H1018.89M960.351 482.849V541.384M960.351 482.849H1018.89M960.351 541.384V599.92M960.351 541.384H1018.89M960.351 599.92V658.456M960.351 599.92H1018.89M960.351 658.456V716.992M960.351 658.456H1018.89M960.351 716.992V775.528M960.351 716.992H1018.89M960.351 775.528V834.064M960.351 775.528H1018.89M960.351 834.064V892.6M960.351 834.064H1018.89M960.351 892.6V951.136M960.351 892.6H1018.89M960.351 951.136V1009.67M960.351 951.136H1018.89M960.351 1009.67V1068.21M960.351 1009.67H1018.89M960.351 1068.21V1126.74M960.351 1068.21H1018.89M960.351 1126.74V1185.28M960.351 1126.74H1018.89M960.351 1185.28H1018.89M1018.89 14.561V73.0969M1018.89 14.561H1077.42M1018.89 73.0969V131.633M1018.89 73.0969H1077.42M1018.89 131.633V190.169M1018.89 131.633H1077.42M1018.89 190.169V248.705M1018.89 190.169H1077.42M1018.89 248.705V307.241M1018.89 248.705H1077.42M1018.89 307.241V365.777M1018.89 307.241H1077.42M1018.89 365.777V424.313M1018.89 365.777H1077.42M1018.89 424.313V482.849M1018.89 424.313H1077.42M1018.89 482.849V541.384M1018.89 482.849H1077.42M1018.89 541.384V599.92M1018.89 541.384H1077.42M1018.89 599.92V658.456M1018.89 599.92H1077.42M1018.89 658.456V716.992M1018.89 658.456H1077.42M1018.89 716.992V775.528M1018.89 716.992H1077.42M1018.89 775.528V834.064M1018.89 775.528H1077.42M1018.89 834.064V892.6M1018.89 834.064H1077.42M1018.89 892.6V951.136M1018.89 892.6H1077.42M1018.89 951.136V1009.67M1018.89 951.136H1077.42M1018.89 1009.67V1068.21M1018.89 1009.67H1077.42M1018.89 1068.21V1126.74M1018.89 1068.21H1077.42M1018.89 1126.74V1185.28M1018.89 1126.74H1077.42M1018.89 1185.28H1077.42M1077.42 14.561V73.0969M1077.42 14.561H1135.96M1077.42 73.0969V131.633M1077.42 73.0969H1135.96M1077.42 131.633V190.169M1077.42 131.633H1135.96M1077.42 190.169V248.705M1077.42 190.169H1135.96M1077.42 248.705V307.241M1077.42 248.705H1135.96M1077.42 307.241V365.777M1077.42 307.241H1135.96M1077.42 365.777V424.313M1077.42 365.777H1135.96M1077.42 424.313V482.849M1077.42 424.313H1135.96M1077.42 482.849V541.384M1077.42 482.849H1135.96M1077.42 541.384V599.92M1077.42 541.384H1135.96M1077.42 599.92V658.456M1077.42 599.92H1135.96M1077.42 658.456V716.992M1077.42 658.456H1135.96M1077.42 716.992V775.528M1077.42 716.992H1135.96M1077.42 775.528V834.064M1077.42 775.528H1135.96M1077.42 834.064V892.6M1077.42 834.064H1135.96M1077.42 892.6V951.136M1077.42 892.6H1135.96M1077.42 951.136V1009.67M1077.42 951.136H1135.96M1077.42 1009.67V1068.21M1077.42 1009.67H1135.96M1077.42 1068.21V1126.74M1077.42 1068.21H1135.96M1077.42 1126.74V1185.28M1077.42 1126.74H1135.96M1077.42 1185.28H1135.96M1135.96 14.561V73.0969M1135.96 14.561H1194.5M1135.96 73.0969V131.633M1135.96 73.0969H1194.5M1135.96 131.633V190.169M1135.96 131.633H1194.5M1135.96 190.169V248.705M1135.96 190.169H1194.5M1135.96 248.705V307.241M1135.96 248.705H1194.5M1135.96 307.241V365.777M1135.96 307.241H1194.5M1135.96 365.777V424.313M1135.96 365.777H1194.5M1135.96 424.313V482.849M1135.96 424.313H1194.5M1135.96 482.849V541.384M1135.96 482.849H1194.5M1135.96 541.384V599.92M1135.96 541.384H1194.5M1135.96 599.92V658.456M1135.96 599.92H1194.5M1135.96 658.456V716.992M1135.96 658.456H1194.5M1135.96 716.992V775.528M1135.96 716.992H1194.5M1135.96 775.528V834.064M1135.96 775.528H1194.5M1135.96 834.064V892.6M1135.96 834.064H1194.5M1135.96 892.6V951.136M1135.96 892.6H1194.5M1135.96 951.136V1009.67M1135.96 951.136H1194.5M1135.96 1009.67V1068.21M1135.96 1009.67H1194.5M1135.96 1068.21V1126.74M1135.96 1068.21H1194.5M1135.96 1126.74V1185.28M1135.96 1126.74H1194.5M1135.96 1185.28H1194.5M1194.5 14.561V73.0969M1194.5 14.561H1253.03M1194.5 73.0969V131.633M1194.5 73.0969H1253.03M1194.5 131.633V190.169M1194.5 131.633H1253.03M1194.5 190.169V248.705M1194.5 190.169H1253.03M1194.5 248.705V307.241M1194.5 248.705H1253.03M1194.5 307.241V365.777M1194.5 307.241H1253.03M1194.5 365.777V424.313M1194.5 365.777H1253.03M1194.5 424.313V482.849M1194.5 424.313H1253.03M1194.5 482.849V541.384M1194.5 482.849H1253.03M1194.5 541.384V599.92M1194.5 541.384H1253.03M1194.5 599.92V658.456M1194.5 599.92H1253.03M1194.5 658.456V716.992M1194.5 658.456H1253.03M1194.5 716.992V775.528M1194.5 716.992H1253.03M1194.5 775.528V834.064M1194.5 775.528H1253.03M1194.5 834.064V892.6M1194.5 834.064H1253.03M1194.5 892.6V951.136M1194.5 892.6H1253.03M1194.5 951.136V1009.67M1194.5 951.136H1253.03M1194.5 1009.67V1068.21M1194.5 1009.67H1253.03M1194.5 1068.21V1126.74M1194.5 1068.21H1253.03M1194.5 1126.74V1185.28M1194.5 1126.74H1253.03M1194.5 1185.28H1253.03M1253.03 14.561V73.0969M1253.03 14.561H1311.57M1253.03 73.0969V131.633M1253.03 73.0969H1311.57M1253.03 131.633V190.169M1253.03 131.633H1311.57M1253.03 190.169V248.705M1253.03 190.169H1311.57M1253.03 248.705V307.241M1253.03 248.705H1311.57M1253.03 307.241V365.777M1253.03 307.241H1311.57M1253.03 365.777V424.313M1253.03 365.777H1311.57M1253.03 424.313V482.849M1253.03 424.313H1311.57M1253.03 482.849V541.384M1253.03 482.849H1311.57M1253.03 541.384V599.92M1253.03 541.384H1311.57M1253.03 599.92V658.456M1253.03 599.92H1311.57M1253.03 658.456V716.992M1253.03 658.456H1311.57M1253.03 716.992V775.528M1253.03 716.992H1311.57M1253.03 775.528V834.064M1253.03 775.528H1311.57M1253.03 834.064V892.6M1253.03 834.064H1311.57M1253.03 892.6V951.136M1253.03 892.6H1311.57M1253.03 951.136V1009.67M1253.03 951.136H1311.57M1253.03 1009.67V1068.21M1253.03 1009.67H1311.57M1253.03 1068.21V1126.74M1253.03 1068.21H1311.57M1253.03 1126.74V1185.28M1253.03 1126.74H1311.57M1253.03 1185.28H1311.57M1311.57 14.561V73.0969M1311.57 14.561H1370.1M1311.57 73.0969V131.633M1311.57 73.0969H1370.1M1311.57 131.633V190.169M1311.57 131.633H1370.1M1311.57 190.169V248.705M1311.57 190.169H1370.1M1311.57 248.705V307.241M1311.57 248.705H1370.1M1311.57 307.241V365.777M1311.57 307.241H1370.1M1311.57 365.777V424.313M1311.57 365.777H1370.1M1311.57 424.313V482.849M1311.57 424.313H1370.1M1311.57 482.849V541.384M1311.57 482.849H1370.1M1311.57 541.384V599.92M1311.57 541.384H1370.1M1311.57 599.92V658.456M1311.57 599.92H1370.1M1311.57 658.456V716.992M1311.57 658.456H1370.1M1311.57 716.992V775.528M1311.57 716.992H1370.1M1311.57 775.528V834.064M1311.57 775.528H1370.1M1311.57 834.064V892.6M1311.57 834.064H1370.1M1311.57 892.6V951.136M1311.57 892.6H1370.1M1311.57 951.136V1009.67M1311.57 951.136H1370.1M1311.57 1009.67V1068.21M1311.57 1009.67H1370.1M1311.57 1068.21V1126.74M1311.57 1068.21H1370.1M1311.57 1126.74V1185.28M1311.57 1126.74H1370.1M1311.57 1185.28H1370.1M1370.1 14.561V73.0969M1370.1 14.561H1428.64M1370.1 73.0969V131.633M1370.1 73.0969H1428.64M1370.1 131.633V190.169M1370.1 131.633H1428.64M1370.1 190.169V248.705M1370.1 190.169H1428.64M1370.1 248.705V307.241M1370.1 248.705H1428.64M1370.1 307.241V365.777M1370.1 307.241H1428.64M1370.1 365.777V424.313M1370.1 365.777H1428.64M1370.1 424.313V482.849M1370.1 424.313H1428.64M1370.1 482.849V541.384M1370.1 482.849H1428.64M1370.1 541.384V599.92M1370.1 541.384H1428.64M1370.1 599.92V658.456M1370.1 599.92H1428.64M1370.1 658.456V716.992M1370.1 658.456H1428.64M1370.1 716.992V775.528M1370.1 716.992H1428.64M1370.1 775.528V834.064M1370.1 775.528H1428.64M1370.1 834.064V892.6M1370.1 834.064H1428.64M1370.1 892.6V951.136M1370.1 892.6H1428.64M1370.1 951.136V1009.67M1370.1 951.136H1428.64M1370.1 1009.67V1068.21M1370.1 1009.67H1428.64M1370.1 1068.21V1126.74M1370.1 1068.21H1428.64M1370.1 1126.74V1185.28M1370.1 1126.74H1428.64M1370.1 1185.28H1428.64M1428.64 14.561V73.0969M1428.64 14.561H1487.17M1428.64 73.0969V131.633M1428.64 73.0969H1487.17M1428.64 131.633V190.169M1428.64 131.633H1487.17M1428.64 190.169V248.705M1428.64 190.169H1487.17M1428.64 248.705V307.241M1428.64 248.705H1487.17M1428.64 307.241V365.777M1428.64 307.241H1487.17M1428.64 365.777V424.313M1428.64 365.777H1487.17M1428.64 424.313V482.849M1428.64 424.313H1487.17M1428.64 482.849V541.384M1428.64 482.849H1487.17M1428.64 541.384V599.92M1428.64 541.384H1487.17M1428.64 599.92V658.456M1428.64 599.92H1487.17M1428.64 658.456V716.992M1428.64 658.456H1487.17M1428.64 716.992V775.528M1428.64 716.992H1487.17M1428.64 775.528V834.064M1428.64 775.528H1487.17M1428.64 834.064V892.6M1428.64 834.064H1487.17M1428.64 892.6V951.136M1428.64 892.6H1487.17M1428.64 951.136V1009.67M1428.64 951.136H1487.17M1428.64 1009.67V1068.21M1428.64 1009.67H1487.17M1428.64 1068.21V1126.74M1428.64 1068.21H1487.17M1428.64 1126.74V1185.28M1428.64 1126.74H1487.17M1428.64 1185.28H1487.17M1487.17 14.561V73.0969M1487.17 14.561H1545.71M1487.17 73.0969V131.633M1487.17 73.0969H1545.71M1487.17 131.633V190.169M1487.17 131.633H1545.71M1487.17 190.169V248.705M1487.17 190.169H1545.71M1487.17 248.705V307.241M1487.17 248.705H1545.71M1487.17 307.241V365.777M1487.17 307.241H1545.71M1487.17 365.777V424.313M1487.17 365.777H1545.71M1487.17 424.313V482.849M1487.17 424.313H1545.71M1487.17 482.849V541.384M1487.17 482.849H1545.71M1487.17 541.384V599.92M1487.17 541.384H1545.71M1487.17 599.92V658.456M1487.17 599.92H1545.71M1487.17 658.456V716.992M1487.17 658.456H1545.71M1487.17 716.992V775.528M1487.17 716.992H1545.71M1487.17 775.528V834.064M1487.17 775.528H1545.71M1487.17 834.064V892.6M1487.17 834.064H1545.71M1487.17 892.6V951.136M1487.17 892.6H1545.71M1487.17 951.136V1009.67M1487.17 951.136H1545.71M1487.17 1009.67V1068.21M1487.17 1009.67H1545.71M1487.17 1068.21V1126.74M1487.17 1068.21H1545.71M1487.17 1126.74V1185.28M1487.17 1126.74H1545.71M1487.17 1185.28H1545.71M1545.71 14.561V73.0969M1545.71 14.561H1604.25M1545.71 73.0969V131.633M1545.71 73.0969H1604.25M1545.71 131.633V190.169M1545.71 131.633H1604.25M1545.71 190.169V248.705M1545.71 190.169H1604.25M1545.71 248.705V307.241M1545.71 248.705H1604.25M1545.71 307.241V365.777M1545.71 307.241H1604.25M1545.71 365.777V424.313M1545.71 365.777H1604.25M1545.71 424.313V482.849M1545.71 424.313H1604.25M1545.71 482.849V541.384M1545.71 482.849H1604.25M1545.71 541.384V599.92M1545.71 541.384H1604.25M1545.71 599.92V658.456M1545.71 599.92H1604.25M1545.71 658.456V716.992M1545.71 658.456H1604.25M1545.71 716.992V775.528M1545.71 716.992H1604.25M1545.71 775.528V834.064M1545.71 775.528H1604.25M1545.71 834.064V892.6M1545.71 834.064H1604.25M1545.71 892.6V951.136M1545.71 892.6H1604.25M1545.71 951.136V1009.67M1545.71 951.136H1604.25M1545.71 1009.67V1068.21M1545.71 1009.67H1604.25M1545.71 1068.21V1126.74M1545.71 1068.21H1604.25M1545.71 1126.74V1185.28M1545.71 1126.74H1604.25M1545.71 1185.28H1604.25M1604.25 14.561V73.0969M1604.25 14.561H1662.78M1604.25 73.0969V131.633M1604.25 73.0969H1662.78M1604.25 131.633V190.169M1604.25 131.633H1662.78M1604.25 190.169V248.705M1604.25 190.169H1662.78M1604.25 248.705V307.241M1604.25 248.705H1662.78M1604.25 307.241V365.777M1604.25 307.241H1662.78M1604.25 365.777V424.313M1604.25 365.777H1662.78M1604.25 424.313V482.849M1604.25 424.313H1662.78M1604.25 482.849V541.384M1604.25 482.849H1662.78M1604.25 541.384V599.92M1604.25 541.384H1662.78M1604.25 599.92V658.456M1604.25 599.92H1662.78M1604.25 658.456V716.992M1604.25 658.456H1662.78M1604.25 716.992V775.528M1604.25 716.992H1662.78M1604.25 775.528V834.064M1604.25 775.528H1662.78M1604.25 834.064V892.6M1604.25 834.064H1662.78M1604.25 892.6V951.136M1604.25 892.6H1662.78M1604.25 951.136V1009.67M1604.25 951.136H1662.78M1604.25 1009.67V1068.21M1604.25 1009.67H1662.78M1604.25 1068.21V1126.74M1604.25 1068.21H1662.78M1604.25 1126.74V1185.28M1604.25 1126.74H1662.78M1604.25 1185.28H1662.78M1662.78 14.561V73.0969M1662.78 14.561H1721.32M1662.78 73.0969V131.633M1662.78 73.0969H1721.32M1662.78 131.633V190.169M1662.78 131.633H1721.32M1662.78 190.169V248.705M1662.78 190.169H1721.32M1662.78 248.705V307.241M1662.78 248.705H1721.32M1662.78 307.241V365.777M1662.78 307.241H1721.32M1662.78 365.777V424.313M1662.78 365.777H1721.32M1662.78 424.313V482.849M1662.78 424.313H1721.32M1662.78 482.849V541.384M1662.78 482.849H1721.32M1662.78 541.384V599.92M1662.78 541.384H1721.32M1662.78 599.92V658.456M1662.78 599.92H1721.32M1662.78 658.456V716.992M1662.78 658.456H1721.32M1662.78 716.992V775.528M1662.78 716.992H1721.32M1662.78 775.528V834.064M1662.78 775.528H1721.32M1662.78 834.064V892.6M1662.78 834.064H1721.32M1662.78 892.6V951.136M1662.78 892.6H1721.32M1662.78 951.136V1009.67M1662.78 951.136H1721.32M1662.78 1009.67V1068.21M1662.78 1009.67H1721.32M1662.78 1068.21V1126.74M1662.78 1068.21H1721.32M1662.78 1126.74V1185.28M1662.78 1126.74H1721.32M1662.78 1185.28H1721.32M1721.32 14.561V73.0969M1721.32 14.561H1779.85M1721.32 73.0969V131.633M1721.32 73.0969H1779.85M1721.32 131.633V190.169M1721.32 131.633H1779.85M1721.32 190.169V248.705M1721.32 190.169H1779.85M1721.32 248.705V307.241M1721.32 248.705H1779.85M1721.32 307.241V365.777M1721.32 307.241H1779.85M1721.32 365.777V424.313M1721.32 365.777H1779.85M1721.32 424.313V482.849M1721.32 424.313H1779.85M1721.32 482.849V541.384M1721.32 482.849H1779.85M1721.32 541.384V599.92M1721.32 541.384H1779.85M1721.32 599.92V658.456M1721.32 599.92H1779.85M1721.32 658.456V716.992M1721.32 658.456H1779.85M1721.32 716.992V775.528M1721.32 716.992H1779.85M1721.32 775.528V834.064M1721.32 775.528H1779.85M1721.32 834.064V892.6M1721.32 834.064H1779.85M1721.32 892.6V951.136M1721.32 892.6H1779.85M1721.32 951.136V1009.67M1721.32 951.136H1779.85M1721.32 1009.67V1068.21M1721.32 1009.67H1779.85M1721.32 1068.21V1126.74M1721.32 1068.21H1779.85M1721.32 1126.74V1185.28M1721.32 1126.74H1779.85M1721.32 1185.28H1779.85M1779.85 14.561V73.0969M1779.85 14.561H1838.39M1779.85 73.0969V131.633M1779.85 73.0969H1838.39M1779.85 131.633V190.169M1779.85 131.633H1838.39M1779.85 190.169V248.705M1779.85 190.169H1838.39M1779.85 248.705V307.241M1779.85 248.705H1838.39M1779.85 307.241V365.777M1779.85 307.241H1838.39M1779.85 365.777V424.313M1779.85 365.777H1838.39M1779.85 424.313V482.849M1779.85 424.313H1838.39M1779.85 482.849V541.384M1779.85 482.849H1838.39M1779.85 541.384V599.92M1779.85 541.384H1838.39M1779.85 599.92V658.456M1779.85 599.92H1838.39M1779.85 658.456V716.992M1779.85 658.456H1838.39M1779.85 716.992V775.528M1779.85 716.992H1838.39M1779.85 775.528V834.064M1779.85 775.528H1838.39M1779.85 834.064V892.6M1779.85 834.064H1838.39M1779.85 892.6V951.136M1779.85 892.6H1838.39M1779.85 951.136V1009.67M1779.85 951.136H1838.39M1779.85 1009.67V1068.21M1779.85 1009.67H1838.39M1779.85 1068.21V1126.74M1779.85 1068.21H1838.39M1779.85 1126.74V1185.28M1779.85 1126.74H1838.39M1779.85 1185.28H1838.39M1838.39 14.561V73.0969M1838.39 14.561H1896.93M1838.39 73.0969V131.633M1838.39 73.0969H1896.93M1838.39 131.633V190.169M1838.39 131.633H1896.93M1838.39 190.169V248.705M1838.39 190.169H1896.93M1838.39 248.705V307.241M1838.39 248.705H1896.93M1838.39 307.241V365.777M1838.39 307.241H1896.93M1838.39 365.777V424.313M1838.39 365.777H1896.93M1838.39 424.313V482.849M1838.39 424.313H1896.93M1838.39 482.849V541.384M1838.39 482.849H1896.93M1838.39 541.384V599.92M1838.39 541.384H1896.93M1838.39 599.92V658.456M1838.39 599.92H1896.93M1838.39 658.456V716.992M1838.39 658.456H1896.93M1838.39 716.992V775.528M1838.39 716.992H1896.93M1838.39 775.528V834.064M1838.39 775.528H1896.93M1838.39 834.064V892.6M1838.39 834.064H1896.93M1838.39 892.6V951.136M1838.39 892.6H1896.93M1838.39 951.136V1009.67M1838.39 951.136H1896.93M1838.39 1009.67V1068.21M1838.39 1009.67H1896.93M1838.39 1068.21V1126.74M1838.39 1068.21H1896.93M1838.39 1126.74V1185.28M1838.39 1126.74H1896.93M1838.39 1185.28H1896.93M1896.93 14.561V73.0969M1896.93 14.561H1955.46M1896.93 73.0969V131.633M1896.93 73.0969H1955.46M1896.93 131.633V190.169M1896.93 131.633H1955.46M1896.93 190.169V248.705M1896.93 190.169H1955.46M1896.93 248.705V307.241M1896.93 248.705H1955.46M1896.93 307.241V365.777M1896.93 307.241H1955.46M1896.93 365.777V424.313M1896.93 365.777H1955.46M1896.93 424.313V482.849M1896.93 424.313H1955.46M1896.93 482.849V541.384M1896.93 482.849H1955.46M1896.93 541.384V599.92M1896.93 541.384H1955.46M1896.93 599.92V658.456M1896.93 599.92H1955.46M1896.93 658.456V716.992M1896.93 658.456H1955.46M1896.93 716.992V775.528M1896.93 716.992H1955.46M1896.93 775.528V834.064M1896.93 775.528H1955.46M1896.93 834.064V892.6M1896.93 834.064H1955.46M1896.93 892.6V951.136M1896.93 892.6H1955.46M1896.93 951.136V1009.67M1896.93 951.136H1955.46M1896.93 1009.67V1068.21M1896.93 1009.67H1955.46M1896.93 1068.21V1126.74M1896.93 1068.21H1955.46M1896.93 1126.74V1185.28M1896.93 1126.74H1955.46M1896.93 1185.28H1955.46M1955.46 14.561V73.0969M1955.46 14.561H2014M1955.46 73.0969V131.633M1955.46 73.0969H2014M1955.46 131.633V190.169M1955.46 131.633H2014M1955.46 190.169V248.705M1955.46 190.169H2014M1955.46 248.705V307.241M1955.46 248.705H2014M1955.46 307.241V365.777M1955.46 307.241H2014M1955.46 365.777V424.313M1955.46 365.777H2014M1955.46 424.313V482.849M1955.46 424.313H2014M1955.46 482.849V541.384M1955.46 482.849H2014M1955.46 541.384V599.92M1955.46 541.384H2014M1955.46 599.92V658.456M1955.46 599.92H2014M1955.46 658.456V716.992M1955.46 658.456H2014M1955.46 716.992V775.528M1955.46 716.992H2014M1955.46 775.528V834.064M1955.46 775.528H2014M1955.46 834.064V892.6M1955.46 834.064H2014M1955.46 892.6V951.136M1955.46 892.6H2014M1955.46 951.136V1009.67M1955.46 951.136H2014M1955.46 1009.67V1068.21M1955.46 1009.67H2014M1955.46 1068.21V1126.74M1955.46 1068.21H2014M1955.46 1126.74V1185.28M1955.46 1126.74H2014M1955.46 1185.28H2014M2014 14.561V73.0969M2014 14.561H2072.53M2014 73.0969V131.633M2014 73.0969H2072.53M2014 131.633V190.169M2014 131.633H2072.53M2014 190.169V248.705M2014 190.169H2072.53M2014 248.705V307.241M2014 248.705H2072.53M2014 307.241V365.777M2014 307.241H2072.53M2014 365.777V424.313M2014 365.777H2072.53M2014 424.313V482.849M2014 424.313H2072.53M2014 482.849V541.384M2014 482.849H2072.53M2014 541.384V599.92M2014 541.384H2072.53M2014 599.92V658.456M2014 599.92H2072.53M2014 658.456V716.992M2014 658.456H2072.53M2014 716.992V775.528M2014 716.992H2072.53M2014 775.528V834.064M2014 775.528H2072.53M2014 834.064V892.6M2014 834.064H2072.53M2014 892.6V951.136M2014 892.6H2072.53M2014 951.136V1009.67M2014 951.136H2072.53M2014 1009.67V1068.21M2014 1009.67H2072.53M2014 1068.21V1126.74M2014 1068.21H2072.53M2014 1126.74V1185.28M2014 1126.74H2072.53M2014 1185.28H2072.53M2072.53 14.561V73.0969M2072.53 14.561H2131.07M2072.53 73.0969V131.633M2072.53 73.0969H2131.07M2072.53 131.633V190.169M2072.53 131.633H2131.07M2072.53 190.169V248.705M2072.53 190.169H2131.07M2072.53 248.705V307.241M2072.53 248.705H2131.07M2072.53 307.241V365.777M2072.53 307.241H2131.07M2072.53 365.777V424.313M2072.53 365.777H2131.07M2072.53 424.313V482.849M2072.53 424.313H2131.07M2072.53 482.849V541.384M2072.53 482.849H2131.07M2072.53 541.384V599.92M2072.53 541.384H2131.07M2072.53 599.92V658.456M2072.53 599.92H2131.07M2072.53 658.456V716.992M2072.53 658.456H2131.07M2072.53 716.992V775.528M2072.53 716.992H2131.07M2072.53 775.528V834.064M2072.53 775.528H2131.07M2072.53 834.064V892.6M2072.53 834.064H2131.07M2072.53 892.6V951.136M2072.53 892.6H2131.07M2072.53 951.136V1009.67M2072.53 951.136H2131.07M2072.53 1009.67V1068.21M2072.53 1009.67H2131.07M2072.53 1068.21V1126.74M2072.53 1068.21H2131.07M2072.53 1126.74V1185.28M2072.53 1126.74H2131.07M2072.53 1185.28H2131.07M2131.07 14.561V73.0969M2131.07 14.561H2189.61M2131.07 73.0969V131.633M2131.07 73.0969H2189.61M2131.07 131.633V190.169M2131.07 131.633H2189.61M2131.07 190.169V248.705M2131.07 190.169H2189.61M2131.07 248.705V307.241M2131.07 248.705H2189.61M2131.07 307.241V365.777M2131.07 307.241H2189.61M2131.07 365.777V424.313M2131.07 365.777H2189.61M2131.07 424.313V482.849M2131.07 424.313H2189.61M2131.07 482.849V541.384M2131.07 482.849H2189.61M2131.07 541.384V599.92M2131.07 541.384H2189.61M2131.07 599.92V658.456M2131.07 599.92H2189.61M2131.07 658.456V716.992M2131.07 658.456H2189.61M2131.07 716.992V775.528M2131.07 716.992H2189.61M2131.07 775.528V834.064M2131.07 775.528H2189.61M2131.07 834.064V892.6M2131.07 834.064H2189.61M2131.07 892.6V951.136M2131.07 892.6H2189.61M2131.07 951.136V1009.67M2131.07 951.136H2189.61M2131.07 1009.67V1068.21M2131.07 1009.67H2189.61M2131.07 1068.21V1126.74M2131.07 1068.21H2189.61M2131.07 1126.74V1185.28M2131.07 1126.74H2189.61M2131.07 1185.28H2189.61M2189.61 14.561V73.0969M2189.61 14.561H2248.14V73.0969M2189.61 73.0969V131.633M2189.61 73.0969H2248.14M2189.61 131.633V190.169M2189.61 131.633H2248.14M2189.61 190.169V248.705M2189.61 190.169H2248.14M2189.61 248.705V307.241M2189.61 248.705H2248.14M2189.61 307.241V365.777M2189.61 307.241H2248.14M2189.61 365.777V424.313M2189.61 365.777H2248.14M2189.61 424.313V482.849M2189.61 424.313H2248.14M2189.61 482.849V541.384M2189.61 482.849H2248.14M2189.61 541.384V599.92M2189.61 541.384H2248.14M2189.61 599.92V658.456M2189.61 599.92H2248.14M2189.61 658.456V716.992M2189.61 658.456H2248.14M2189.61 716.992V775.528M2189.61 716.992H2248.14M2189.61 775.528V834.064M2189.61 775.528H2248.14M2189.61 834.064V892.6M2189.61 834.064H2248.14M2189.61 892.6V951.136M2189.61 892.6H2248.14M2189.61 951.136V1009.67M2189.61 951.136H2248.14M2189.61 1009.67V1068.21M2189.61 1009.67H2248.14M2189.61 1068.21V1126.74M2189.61 1068.21H2248.14M2189.61 1126.74V1185.28M2189.61 1126.74H2248.14M2189.61 1185.28H2248.14V1126.74M2248.14 73.0969V131.633M2248.14 131.633V190.169M2248.14 190.169V248.705M2248.14 248.705V307.241M2248.14 307.241V365.777M2248.14 365.777V424.313M2248.14 424.313V482.849M2248.14 482.849V541.384M2248.14 541.384V599.92M2248.14 599.92V658.456M2248.14 658.456V716.992M2248.14 716.992V775.528M2248.14 775.528V834.064M2248.14 834.064V892.6M2248.14 892.6V951.136M2248.14 951.136V1009.67M2248.14 1009.67V1068.21M2248.14 1068.21V1126.74" stroke="url(#paint0_radial_453_44)" stroke-width="0.731699"/>
</g>
<g style="mix-blend-mode:soft-light" opacity="0.8">
<path d="M-93.2954 231.144V248.705M-93.2954 248.705V266.265M-93.2954 248.705H-110.856M-93.2954 248.705H-75.7346M-93.2954 699.431V716.992M-93.2954 716.992V734.553M-93.2954 716.992H-110.856M-93.2954 716.992H-75.7346M-93.2954 1167.72V1185.28M-93.2954 1185.28V1202.84M-93.2954 1185.28H-110.856M-93.2954 1185.28H-75.7346M374.992 231.144V248.705M374.992 248.705V266.265M374.992 248.705H357.432M374.992 248.705H392.553M374.992 699.431V716.992M374.992 716.992V734.553M374.992 716.992H357.432M374.992 716.992H392.553M374.992 1167.72V1185.28M374.992 1185.28V1202.84M374.992 1185.28H357.432M374.992 1185.28H392.553M843.28 231.144V248.705M843.28 248.705V266.265M843.28 248.705H825.719M843.28 248.705H860.841M843.28 699.431V716.992M843.28 716.992V734.553M843.28 716.992H825.719M843.28 716.992H860.841M843.28 1167.72V1185.28M843.28 1185.28V1202.84M843.28 1185.28H825.719M843.28 1185.28H860.841M1311.57 231.144V248.705M1311.57 248.705V266.265M1311.57 248.705H1294.01M1311.57 248.705H1329.13M1311.57 699.431V716.992M1311.57 716.992V734.553M1311.57 716.992H1294.01M1311.57 716.992H1329.13M1311.57 1167.72V1185.28M1311.57 1185.28V1202.84M1311.57 1185.28H1294.01M1311.57 1185.28H1329.13M1779.86 231.144V248.705M1779.86 248.705V266.265M1779.86 248.705H1762.29M1779.86 248.705H1797.42M1779.86 699.431V716.992M1779.86 716.992V734.553M1779.86 716.992H1762.29M1779.86 716.992H1797.42M1779.86 1167.72V1185.28M1779.86 1185.28V1202.84M1779.86 1185.28H1762.29M1779.86 1185.28H1797.42M2248.14 231.144V248.705M2248.14 248.705V266.265M2248.14 248.705H2230.58M2248.14 248.705H2265.7M2248.14 699.431V716.992M2248.14 716.992V734.553M2248.14 716.992H2230.58M2248.14 716.992H2265.7M2248.14 1167.72V1185.28M2248.14 1185.28V1202.84M2248.14 1185.28H2230.58M2248.14 1185.28H2265.7M-93.2954 -2.99982V14.561M-93.2954 14.561V32.1218M-93.2954 14.561H-110.856M-93.2954 14.561H-75.7346M-93.2954 465.288V482.849M-93.2954 482.849V500.409M-93.2954 482.849H-110.856M-93.2954 482.849H-75.7346M-93.2954 933.575V951.136M-93.2954 951.136V968.697M-93.2954 951.136H-110.856M-93.2954 951.136H-75.7346M374.992 -2.99982V14.561M374.992 14.561V32.1218M374.992 14.561H357.432M374.992 14.561H392.553M374.992 465.288V482.849M374.992 482.849V500.409M374.992 482.849H357.432M374.992 482.849H392.553M374.992 933.575V951.136M374.992 951.136V968.697M374.992 951.136H357.432M374.992 951.136H392.553M843.28 -2.99982V14.561M843.28 14.561V32.1218M843.28 14.561H825.719M843.28 14.561H860.841M843.28 465.288V482.849M843.28 482.849V500.409M843.28 482.849H825.719M843.28 482.849H860.841M843.28 933.575V951.136M843.28 951.136V968.697M843.28 951.136H825.719M843.28 951.136H860.841M1311.57 -2.99982V14.561M1311.57 14.561V32.1218M1311.57 14.561H1294.01M1311.57 14.561H1329.13M1311.57 465.288V482.849M1311.57 482.849V500.409M1311.57 482.849H1294.01M1311.57 482.849H1329.13M1311.57 933.575V951.136M1311.57 951.136V968.697M1311.57 951.136H1294.01M1311.57 951.136H1329.13M1779.86 -2.99982V14.561M1779.86 14.561V32.1218M1779.86 14.561H1762.29M1779.86 14.561H1797.42M1779.86 465.288V482.849M1779.86 482.849V500.409M1779.86 482.849H1762.29M1779.86 482.849H1797.42M1779.86 933.575V951.136M1779.86 951.136V968.697M1779.86 951.136H1762.29M1779.86 951.136H1797.42M2248.14 -2.99982V14.561M2248.14 14.561V32.1218M2248.14 14.561H2230.58M2248.14 14.561H2265.7M2248.14 465.288V482.849M2248.14 482.849V500.409M2248.14 482.849H2230.58M2248.14 482.849H2265.7M2248.14 933.575V951.136M2248.14 951.136V968.697M2248.14 951.136H2230.58M2248.14 951.136H2265.7M-327.439 231.144V248.705M-327.439 248.705V266.265M-327.439 248.705H-345M-327.439 248.705H-309.878M-327.439 699.431V716.992M-327.439 716.992V734.553M-327.439 716.992H-345M-327.439 716.992H-309.878M-327.439 1167.72V1185.28M-327.439 1185.28V1202.84M-327.439 1185.28H-345M-327.439 1185.28H-309.878M140.848 231.144V248.705M140.848 248.705V266.265M140.848 248.705H123.288M140.848 248.705H158.409M140.848 699.431V716.992M140.848 716.992V734.553M140.848 716.992H123.288M140.848 716.992H158.409M140.848 1167.72V1185.28M140.848 1185.28V1202.84M140.848 1185.28H123.288M140.848 1185.28H158.409M609.136 231.144V248.705M609.136 248.705V266.265M609.136 248.705H591.575M609.136 248.705H626.697M609.136 699.431V716.992M609.136 716.992V734.553M609.136 716.992H591.575M609.136 716.992H626.697M609.136 1167.72V1185.28M609.136 1185.28V1202.84M609.136 1185.28H591.575M609.136 1185.28H626.697M1077.42 231.144V248.705M1077.42 248.705V266.265M1077.42 248.705H1059.86M1077.42 248.705H1094.98M1077.42 699.431V716.992M1077.42 716.992V734.553M1077.42 716.992H1059.86M1077.42 716.992H1094.98M1077.42 1167.72V1185.28M1077.42 1185.28V1202.84M1077.42 1185.28H1059.86M1077.42 1185.28H1094.98M1545.71 231.144V248.705M1545.71 248.705V266.265M1545.71 248.705H1528.15M1545.71 248.705H1563.27M1545.71 699.431V716.992M1545.71 716.992V734.553M1545.71 716.992H1528.15M1545.71 716.992H1563.27M1545.71 1167.72V1185.28M1545.71 1185.28V1202.84M1545.71 1185.28H1528.15M1545.71 1185.28H1563.27M2014 231.144V248.705M2014 248.705V266.265M2014 248.705H1996.44M2014 248.705H2031.56M2014 699.431V716.992M2014 716.992V734.553M2014 716.992H1996.44M2014 716.992H2031.56M2014 1167.72V1185.28M2014 1185.28V1202.84M2014 1185.28H1996.44M2014 1185.28H2031.56M-327.439 -2.99973V14.5611M-327.439 14.5611V32.1218M-327.439 14.5611H-345M-327.439 14.5611H-309.878M-327.439 465.288V482.849M-327.439 482.849V500.409M-327.439 482.849H-345M-327.439 482.849H-309.878M-327.439 933.575V951.136M-327.439 951.136V968.697M-327.439 951.136H-345M-327.439 951.136H-309.878M140.848 -2.99982V14.561M140.848 14.561V32.1218M140.848 14.561H123.288M140.848 14.561H158.409M140.848 465.288V482.849M140.848 482.849V500.409M140.848 482.849H123.288M140.848 482.849H158.409M140.848 933.575V951.136M140.848 951.136V968.697M140.848 951.136H123.288M140.848 951.136H158.409M609.136 -2.99982V14.561M609.136 14.561V32.1218M609.136 14.561H591.575M609.136 14.561H626.697M609.136 465.288V482.849M609.136 482.849V500.409M609.136 482.849H591.575M609.136 482.849H626.697M609.136 933.575V951.136M609.136 951.136V968.697M609.136 951.136H591.575M609.136 951.136H626.697M1077.42 -2.99982V14.561M1077.42 14.561V32.1218M1077.42 14.561H1059.86M1077.42 14.561H1094.98M1077.42 465.288V482.849M1077.42 482.849V500.409M1077.42 482.849H1059.86M1077.42 482.849H1094.98M1077.42 933.575V951.136M1077.42 951.136V968.697M1077.42 951.136H1059.86M1077.42 951.136H1094.98M1545.71 -2.99982V14.561M1545.71 14.561V32.1218M1545.71 14.561H1528.15M1545.71 14.561H1563.27M1545.71 465.288V482.849M1545.71 482.849V500.409M1545.71 482.849H1528.15M1545.71 482.849H1563.27M1545.71 933.575V951.136M1545.71 951.136V968.697M1545.71 951.136H1528.15M1545.71 951.136H1563.27M2014 -2.99982V14.561M2014 14.561V32.1218M2014 14.561H1996.44M2014 14.561H2031.56M2014 465.288V482.849M2014 482.849V500.409M2014 482.849H1996.44M2014 482.849H2031.56M2014 933.575V951.136M2014 951.136V968.697M2014 951.136H1996.44M2014 951.136H2031.56" stroke="url(#paint1_radial_453_44)" stroke-width="1.4634"/>
</g>
</g>
<defs>
<radialGradient id="paint0_radial_453_44" cx="0" cy="0" r="1" gradientUnits="userSpaceOnUse" gradientTransform="translate(960.352 599.92) rotate(90) scale(585.359 1039.91)">
<stop offset="0.665789" stop-color="white"/>
<stop offset="1" stop-color="white" stop-opacity="0.2"/>
</radialGradient>
<radialGradient id="paint1_radial_453_44" cx="0" cy="0" r="1" gradientUnits="userSpaceOnUse" gradientTransform="translate(960.352 599.92) rotate(90) scale(602.92 1054.09)">
<stop offset="0.665789" stop-color="white"/>
<stop offset="1" stop-color="white" stop-opacity="0.2"/>
</radialGradient>
</defs>
</svg>
