<svg width="1048" height="986" viewBox="0 0 1048 986" fill="none" xmlns="http://www.w3.org/2000/svg">
<path d="M615.268 505.584L438.464 535.024C462.559 664.514 529.78 745.572 556.827 767.06L569.855 764.89C612.77 673.936 622.976 617.277 615.268 505.584Z" fill="url(#paint0_linear_266_11)"/>
<path d="M608.332 451.009L430.597 480.604C416.994 349.367 458.164 250.261 477.872 220.988L491.83 218.663C558.412 291.385 580.634 345.122 608.332 451.009Z" fill="url(#paint1_linear_266_11)"/>
<path d="M388.838 248.293C298.658 300.204 245.658 387.212 244 509.57L374.357 487.087C366.987 412.654 357.713 365.543 388.838 248.293Z" fill="url(#paint2_linear_266_11)"/>
<path d="M657.688 737.713C747.869 685.802 801.342 602.962 803 480.604L672.169 497.07C679.539 571.502 688.814 620.463 657.688 737.713Z" fill="url(#paint3_linear_266_11)"/>
<path d="M570.83 218C671.429 238.144 755.508 301.679 791.64 417.744L663.758 438.897C649.763 365.567 633.601 319.615 570.83 218Z" fill="url(#paint4_linear_266_11)"/>
<path d="M468.357 767.06C367.758 746.916 290.545 684.327 254.413 568.262L382.769 545.259C396.763 618.589 405.586 665.444 468.357 767.06Z" fill="url(#paint5_linear_266_11)"/>
<path d="M615.268 505.584L438.464 535.024C462.559 664.514 529.78 745.572 556.827 767.06L569.855 764.89C612.77 673.936 622.976 617.277 615.268 505.584Z" fill="url(#paint6_linear_266_11)"/>
<path d="M608.332 451.009L430.597 480.604C416.994 349.367 458.164 250.261 477.872 220.988L491.83 218.663C558.412 291.385 580.634 345.122 608.332 451.009Z" fill="url(#paint7_linear_266_11)"/>
<path d="M388.838 248.293C298.658 300.204 245.658 387.212 244 509.57L374.357 487.087C366.987 412.654 357.713 365.543 388.838 248.293Z" fill="url(#paint8_linear_266_11)"/>
<path d="M657.688 737.713C747.869 685.802 801.342 602.962 803 480.604L672.169 497.07C679.539 571.502 688.814 620.463 657.688 737.713Z" fill="url(#paint9_linear_266_11)"/>
<path d="M570.83 218C671.429 238.144 755.508 301.679 791.64 417.744L663.758 438.897C649.763 365.567 633.601 319.615 570.83 218Z" fill="url(#paint10_linear_266_11)"/>
<path d="M468.357 767.06C367.758 746.916 290.545 684.327 254.413 568.262L382.769 545.259C396.763 618.589 405.586 665.444 468.357 767.06Z" fill="url(#paint11_linear_266_11)"/>
<path d="M153.72 523.103C139.657 374.186 239.162 217.331 372.137 149.02C503.719 81.4251 669.993 91.1558 815.637 260.252C823.709 269.624 837.938 270.415 847.419 262.02C856.899 253.625 858.041 239.221 849.969 229.85C691.327 45.6628 485.608 44.6782 335.13 121.981C186.853 198.152 91.7753 359.768 109.062 530.909L75.6241 536.753C59.4576 539.579 51.6798 558.739 61.4008 571.762L137.252 660.956C147.277 674.385 168.256 671.218 174.528 655.258C190.344 615.007 195.267 586.409 209.138 545.52C214.419 529.95 208.323 511.352 192.33 514.148L153.72 523.103Z" fill="url(#paint12_linear_266_11)"/>
<path d="M892.837 457.438C906.9 606.354 823.113 754.71 690.138 823.02C558.556 890.615 379.114 893.214 233.47 724.118C225.398 714.746 211.169 713.955 201.688 722.35C192.208 730.746 191.066 745.149 199.138 754.52C357.78 938.707 559.282 940.834 709.76 863.532C858.037 787.36 954.782 620.773 937.495 449.632L970.933 443.787C987.099 440.961 994.877 421.802 985.156 408.778L907.77 318.199C897.746 304.77 876.766 307.937 870.494 323.897C854.678 364.148 851.29 394.132 837.419 435.02C832.138 450.59 844.981 465.803 860.974 463.007L892.837 457.438Z" fill="url(#paint13_linear_266_11)"/>
<defs>
<linearGradient id="paint0_linear_266_11" x1="523.5" y1="218" x2="523.5" y2="767.06" gradientUnits="userSpaceOnUse">
<stop stop-color="#58B9FF"/>
<stop offset="1" stop-color="#0F5CFB"/>
</linearGradient>
<linearGradient id="paint1_linear_266_11" x1="523.5" y1="218" x2="523.5" y2="767.06" gradientUnits="userSpaceOnUse">
<stop stop-color="#58B9FF"/>
<stop offset="1" stop-color="#0F5CFB"/>
</linearGradient>
<linearGradient id="paint2_linear_266_11" x1="523.5" y1="218" x2="523.5" y2="767.06" gradientUnits="userSpaceOnUse">
<stop stop-color="#58B9FF"/>
<stop offset="1" stop-color="#0F5CFB"/>
</linearGradient>
<linearGradient id="paint3_linear_266_11" x1="523.5" y1="218" x2="523.5" y2="767.06" gradientUnits="userSpaceOnUse">
<stop stop-color="#58B9FF"/>
<stop offset="1" stop-color="#0F5CFB"/>
</linearGradient>
<linearGradient id="paint4_linear_266_11" x1="523.5" y1="218" x2="523.5" y2="767.06" gradientUnits="userSpaceOnUse">
<stop stop-color="#58B9FF"/>
<stop offset="1" stop-color="#0F5CFB"/>
</linearGradient>
<linearGradient id="paint5_linear_266_11" x1="523.5" y1="218" x2="523.5" y2="767.06" gradientUnits="userSpaceOnUse">
<stop stop-color="#58B9FF"/>
<stop offset="1" stop-color="#0F5CFB"/>
</linearGradient>
<linearGradient id="paint6_linear_266_11" x1="523.5" y1="218" x2="523.5" y2="767.06" gradientUnits="userSpaceOnUse">
<stop stop-color="#58B9FF"/>
<stop offset="1" stop-color="#0F5CFB"/>
</linearGradient>
<linearGradient id="paint7_linear_266_11" x1="523.5" y1="218" x2="523.5" y2="767.06" gradientUnits="userSpaceOnUse">
<stop stop-color="#58B9FF"/>
<stop offset="1" stop-color="#0F5CFB"/>
</linearGradient>
<linearGradient id="paint8_linear_266_11" x1="523.5" y1="218" x2="523.5" y2="767.06" gradientUnits="userSpaceOnUse">
<stop stop-color="#58B9FF"/>
<stop offset="1" stop-color="#0F5CFB"/>
</linearGradient>
<linearGradient id="paint9_linear_266_11" x1="523.5" y1="218" x2="523.5" y2="767.06" gradientUnits="userSpaceOnUse">
<stop stop-color="#58B9FF"/>
<stop offset="1" stop-color="#0F5CFB"/>
</linearGradient>
<linearGradient id="paint10_linear_266_11" x1="523.5" y1="218" x2="523.5" y2="767.06" gradientUnits="userSpaceOnUse">
<stop stop-color="#58B9FF"/>
<stop offset="1" stop-color="#0F5CFB"/>
</linearGradient>
<linearGradient id="paint11_linear_266_11" x1="523.5" y1="218" x2="523.5" y2="767.06" gradientUnits="userSpaceOnUse">
<stop stop-color="#58B9FF"/>
<stop offset="1" stop-color="#0F5CFB"/>
</linearGradient>
<linearGradient id="paint12_linear_266_11" x1="464.913" y1="78.8948" x2="604.653" y2="902.358" gradientUnits="userSpaceOnUse">
<stop stop-color="#58B9FF"/>
<stop offset="1" stop-color="#0F5CFB"/>
</linearGradient>
<linearGradient id="paint13_linear_266_11" x1="464.913" y1="78.8948" x2="604.653" y2="902.358" gradientUnits="userSpaceOnUse">
<stop stop-color="#58B9FF"/>
<stop offset="1" stop-color="#0F5CFB"/>
</linearGradient>
</defs>
</svg>
